<?xml version="1.0" encoding="utf-8"?>
<!-- Generator: Adobe Illustrator 22.1.0, SVG Export Plug-In . SVG Version: 6.00 Build 0)  -->
<svg version="1.1" id="Layer_1" xmlns="http://www.w3.org/2000/svg" xmlns:xlink="http://www.w3.org/1999/xlink" x="0px" y="0px"
	 viewBox="0 0 25 25" style="enable-background:new 0 0 25 25;" xml:space="preserve">
<style type="text/css">
	.st0{fill:#FFFFFF;}
</style>
<title>flogo-RGB-HEX-Blk-58</title>
<path d="M23.6,0H1.4C0.6,0,0,0.6,0,1.4v22.2C0,24.4,0.6,25,1.4,25l0,0h12v-9.7h-3.3v-3.8h3.3V8.8c0-3.2,2-5,4.8-5
	c0.9,0,1.9,0.1,2.9,0.2v3.4h-2c-1.6,0-1.9,0.7-1.9,1.8v2.4H21l-0.5,3.8h-3.3V25h6.4c0.8,0,1.4-0.6,1.4-1.4l0,0V1.4
	C25,0.6,24.4,0,23.6,0L23.6,0z"/>
<path id="f" class="st0" d="M17.2,25v-9.7h3.3l0.5-3.8h-3.8V9.2c0-1.1,0.3-1.8,1.9-1.8h2V3.9c-0.9-0.1-1.9-0.2-2.9-0.2
	c-2.9,0-4.8,1.8-4.8,5v2.8h-3.3v3.8h3.3V25H17.2z"/>
</svg>
