<?xml version="1.0" encoding="utf-8"?>
<!-- Generator: Adobe Illustrator 22.1.0, SVG Export Plug-In . SVG Version: 6.00 Build 0)  -->
<svg version="1.1" id="Layer_1" xmlns="http://www.w3.org/2000/svg" xmlns:xlink="http://www.w3.org/1999/xlink" x="0px" y="0px"
	 viewBox="0 0 40 40" style="enable-background:new 0 0 40 40;" xml:space="preserve">
<path d="M0,0v40h40V0H0z M31.3,28H8.7c-0.6,0-1-0.4-1-1c0-0.6,0.4-1,1-1h22.7c0.6,0,1,0.4,1,1C32.3,27.6,31.9,28,31.3,28z M31.3,21
	H8.7c-0.6,0-1-0.4-1-1c0-0.6,0.4-1,1-1h22.7c0.6,0,1,0.4,1,1C32.3,20.6,31.9,21,31.3,21z M31.3,14H8.7c-0.6,0-1-0.4-1-1
	c0-0.6,0.4-1,1-1h22.7c0.6,0,1,0.4,1,1C32.3,13.6,31.9,14,31.3,14z"/>
</svg>
