<?xml version="1.0" encoding="utf-8"?>
<!-- Generator: Adobe Illustrator 22.1.0, SVG Export Plug-In . SVG Version: 6.00 Build 0)  -->
<svg version="1.1" id="Layer_1" xmlns="http://www.w3.org/2000/svg" xmlns:xlink="http://www.w3.org/1999/xlink" x="0px" y="0px"
	 viewBox="0 0 40 40" style="enable-background:new 0 0 40 40;" xml:space="preserve">
<path d="M0,0v40h40V0H0z M38,38H2V2h36V38z"/>
<path d="M8.7,14h22.7c0.6,0,1-0.4,1-1v0c0-0.6-0.4-1-1-1H8.7c-0.6,0-1,0.4-1,1v0C7.7,13.6,8.1,14,8.7,14z"/>
<path d="M8.7,21h22.7c0.6,0,1-0.4,1-1v0c0-0.6-0.4-1-1-1H8.7c-0.6,0-1,0.4-1,1v0C7.7,20.6,8.1,21,8.7,21z"/>
<path d="M8.7,28h22.7c0.6,0,1-0.4,1-1v0c0-0.6-0.4-1-1-1H8.7c-0.6,0-1,0.4-1,1v0C7.7,27.6,8.1,28,8.7,28z"/>
</svg>
