<?xml version="1.0" encoding="utf-8"?>
<!-- Generator: Adobe Illustrator 22.1.0, SVG Export Plug-In . SVG Version: 6.00 Build 0)  -->
<svg version="1.1" id="Layer_1" xmlns="http://www.w3.org/2000/svg" xmlns:xlink="http://www.w3.org/1999/xlink" x="0px" y="0px"
	 viewBox="0 0 27 25" style="enable-background:new 0 0 27 25;" xml:space="preserve">
<g>
	<g>
		<path d="M23.2,0H1.9C0.8,0,0,0.8,0,1.8v21.4c0,1,0.8,1.8,1.9,1.8h21.3c1,0,1.9-0.8,1.9-1.8V1.8C25.1,0.8,24.2,0,23.2,0z M7.4,21.3
			H3.7V9.4h3.7V21.3z M5.6,7.7c-1.2,0-2.2-1-2.2-2.2s1-2.2,2.2-2.2s2.2,1,2.2,2.2S6.8,7.7,5.6,7.7z M21.3,21.3h-3.7v-5.8
			c0-1.4,0-3.2-1.9-3.2s-2.2,1.5-2.2,3.1v5.9H9.8V9.4h3.5V11h0.1c0.5-1,1.7-1.9,3.5-1.9c3.8,0,4.4,2.5,4.4,5.7
			C21.3,14.8,21.3,21.3,21.3,21.3z"/>
	</g>
	<g>
		<path d="M26.4,20.9c0.1,0,0.2-0.1,0.2-0.2c0-0.1-0.1-0.2-0.2-0.2h-0.2v0.7h0.1v-0.3H26.4L26.4,20.9l0.1,0.3h0.1L26.4,20.9z
			 M26.3,20.8L26.3,20.8l-0.1-0.2h0.1c0.1,0,0.2,0,0.2,0.1C26.5,20.8,26.4,20.8,26.3,20.8z"/>
		<path d="M26.3,20.1c-0.4,0-0.7,0.3-0.7,0.7c0,0.4,0.3,0.7,0.7,0.7c0.4,0,0.7-0.3,0.7-0.7C27,20.4,26.7,20.1,26.3,20.1z M26.3,21.4
			c-0.3,0-0.5-0.2-0.5-0.6c0-0.3,0.2-0.6,0.5-0.6c0.3,0,0.5,0.2,0.5,0.6C26.9,21.2,26.6,21.4,26.3,21.4z"/>
	</g>
</g>
</svg>
