<svg id="Layer_1" data-name="Layer 1" xmlns="http://www.w3.org/2000/svg" viewBox="0 0 71.17 82"><title>logo_b_square_small</title><path d="M44.74,30.22a8.62,8.62,0,0,0,4-7.16c.26-5-2-7.6-4-8.46A18.2,18.2,0,0,0,38,13.47L28,13.64V31.53h9.17C39.64,31.53,43.17,31.18,44.74,30.22Z" transform="translate(-2.6 -1.26)"/><path d="M46.09,37.38c-1.46-.39-7.14-.2-9.63-.22L28,37.38V58.65h7.84a30.42,30.42,0,0,0,8.06-.9c5.15-1.57,9-4.25,8.51-11.87C52.36,42.87,49.45,38.28,46.09,37.38Z" transform="translate(-2.6 -1.26)"/><path d="M2.6,1.26V70.53H73.76V1.26ZM56.45,56.17a16,16,0,0,1-10.66,7.48,40.14,40.14,0,0,1-8.2.79H17.43V58.63h3.87v-45H17.43V6.41h10.3v0H39.49q10.61.16,15,6.18a14.76,14.76,0,0,1,2.66,8.85A12.92,12.92,0,0,1,54.5,30a13.86,13.86,0,0,1-4.42,3.31,12.92,12.92,0,0,1,6.7,5.12A15.35,15.35,0,0,1,59,46.92,17,17,0,0,1,56.45,56.17Z" transform="translate(-2.6 -1.26)"/><path d="M63,75.75a5,5,0,0,0-1.12-1.68A5.07,5.07,0,0,0,60.19,73,5.84,5.84,0,0,0,58,72.6,5.78,5.78,0,0,0,55.9,73a5.09,5.09,0,0,0-1.7,1.08,4.87,4.87,0,0,0-1.12,1.68,6,6,0,0,0,0,4.32,5,5,0,0,0,2.81,2.79,5.69,5.69,0,0,0,2.14.39,5.75,5.75,0,0,0,2.15-.39,5.05,5.05,0,0,0,1.7-1.1A5.1,5.1,0,0,0,63,80.07a5.93,5.93,0,0,0,0-4.32Zm-1.4,3.76a3.88,3.88,0,0,1-.77,1.3,3.55,3.55,0,0,1-1.22.87A3.9,3.9,0,0,1,58,82a3.8,3.8,0,0,1-1.58-.32,3.58,3.58,0,0,1-1.2-.87,3.87,3.87,0,0,1-.77-1.3,4.58,4.58,0,0,1-.27-1.59,4.48,4.48,0,0,1,.27-1.57,4.06,4.06,0,0,1,.77-1.3,3.55,3.55,0,0,1,1.2-.88A3.78,3.78,0,0,1,58,73.85a3.82,3.82,0,0,1,1.6.32,3.62,3.62,0,0,1,1.21.88,4,4,0,0,1,.77,1.3,4.5,4.5,0,0,1,.27,1.57A4.59,4.59,0,0,1,61.62,79.51Z" transform="translate(-2.6 -1.26)"/><path d="M10.59,79.16a2.21,2.21,0,0,0-.47-.74,2.35,2.35,0,0,0-.72-.51,3,3,0,0,0-.9-.25v0a2.48,2.48,0,0,0,1.29-.79,2.11,2.11,0,0,0,.49-1.42A2.41,2.41,0,0,0,10,74.21a2.31,2.31,0,0,0-.73-.79,3,3,0,0,0-1-.43,5.19,5.19,0,0,0-1.15-.13H2.68v1.19h.92v7.77H2.68V83H6.94a5.92,5.92,0,0,0,1.48-.18,3.83,3.83,0,0,0,1.21-.53,2.51,2.51,0,0,0,1.12-2.17A2.67,2.67,0,0,0,10.59,79.16ZM5,74H6.64a3.2,3.2,0,0,1,1.62.35,1.24,1.24,0,0,1,.6,1.17,1.48,1.48,0,0,1-.16.71,1.4,1.4,0,0,1-.43.49,1.89,1.89,0,0,1-.64.29,3.1,3.1,0,0,1-.77.09H5ZM9.1,80.9a1.63,1.63,0,0,1-.59.54,2.62,2.62,0,0,1-.82.28,5.22,5.22,0,0,1-.9.08H5V78.35h1.9a3.26,3.26,0,0,1,1.78.4,1.44,1.44,0,0,1,.62,1.3A1.52,1.52,0,0,1,9.1,80.9Z" transform="translate(-2.6 -1.26)"/><path d="M29.39,81.82l-2.28-7.89a1.58,1.58,0,0,0-1.49-1.07H24.8a1.58,1.58,0,0,0-1.49,1.06L21,81.82h-.55V83h2.34V81.82h-.42l.4-1.31h4.81l.4,1.31h-.29V83H30V81.82ZM23,79.26l1.31-4.36a.76.76,0,0,1,.62-.52,1.6,1.6,0,0,1,.4,0,.75.75,0,0,1,.63.56l1.07,4.32Z" transform="translate(-2.6 -1.26)"/><path d="M19.1,81.82,17,78.35a3.2,3.2,0,0,0,1.78-.87,2.44,2.44,0,0,0,.69-1.8,2.75,2.75,0,0,0-.29-1.31,2.36,2.36,0,0,0-.78-.87A3.43,3.43,0,0,0,17.23,73a6.23,6.23,0,0,0-1.39-.15H11.6v1.19h1v7.77h-1V83H14V78.49h1.52l1.9,3.33H17.2V83h2.34V81.82ZM15.64,77.3H14V74.06h1.73a4.67,4.67,0,0,1,.87.08,2.17,2.17,0,0,1,.72.26,1.47,1.47,0,0,1,0,2.53,2.34,2.34,0,0,1-.75.28A4.74,4.74,0,0,1,15.64,77.3Z" transform="translate(-2.6 -1.26)"/><polygon points="37.94 71.59 35.6 71.59 35.6 72.78 36.09 72.78 36.09 79.71 36.06 79.71 30.76 71.6 28.91 71.6 28.91 80.56 28.48 80.56 28.48 81.76 30.82 81.76 30.82 80.56 30.33 80.56 30.33 73.47 30.36 73.47 35.72 81.74 37.51 81.74 37.51 72.78 37.94 72.78 37.94 71.59"/><polygon points="71.14 71.59 68.8 71.59 68.8 72.78 69.29 72.78 69.29 79.71 69.26 79.71 63.96 71.6 62.11 71.6 62.11 80.56 61.68 80.56 61.68 81.76 64.02 81.76 64.02 80.56 63.53 80.56 63.53 73.47 63.56 73.47 68.91 81.74 70.7 81.74 70.7 72.78 71.14 72.78 71.14 71.59"/><path d="M51.29,75.63A4.62,4.62,0,0,0,50,74a5.24,5.24,0,0,0-1.76-.9,6.87,6.87,0,0,0-1.95-.29H41.88V74h1v7.78h-1V83h4.43a6.44,6.44,0,0,0,1.95-.31A5.48,5.48,0,0,0,50,81.76a4.71,4.71,0,0,0,1.27-1.58,4.9,4.9,0,0,0,.49-2.26A5,5,0,0,0,51.29,75.63Zm-1.35,3.92a3.33,3.33,0,0,1-.88,1.2,3.92,3.92,0,0,1-1.35.74,5.38,5.38,0,0,1-1.7.26H44.25V74.09H46a5.53,5.53,0,0,1,1.7.25,3.9,3.9,0,0,1,1.35.73,3.28,3.28,0,0,1,.88,1.2,4.1,4.1,0,0,1,.32,1.66A4,4,0,0,1,49.95,79.55Z" transform="translate(-2.6 -1.26)"/></svg>